<?xml version="1.0" encoding="UTF-8" standalone="no"?>
<svg width="78px" height="86px" viewBox="0 0 78 86" version="1.1" xmlns="http://www.w3.org/2000/svg" xmlns:xlink="http://www.w3.org/1999/xlink" xmlns:sketch="http://www.bohemiancoding.com/sketch/ns">
    <!-- Generator: Sketch 3.3.2 (12043) - http://www.bohemiancoding.com/sketch -->
    <title>cocktail</title>
    <desc>Created with Sketch.</desc>
    <defs></defs>
    <g id="Page-1" stroke="none" stroke-width="1" fill="none" fill-rule="evenodd" sketch:type="MSPage">
        <g id="cocktail" sketch:type="MSLayerGroup">
            <path d="M61.4626785,24.9597413 C57.4105897,22.8492784 52.4580368,22.4459455 48.2887001,23.6887736 C44.8087812,24.7111756 41.7744046,26.6434217 39.532624,29.241636 C39.4857248,29.2510159 39.4388256,29.2463259 39.3919264,29.2557058 C39.4247559,29.2744654 39.4482055,29.2932251 39.4810349,29.3166747 C39.4341357,29.3729537 39.3872365,29.4292327 39.3450273,29.4855117 C39.3262676,29.4620621 39.3075079,29.4386126 39.2887483,29.4198529 C39.415376,29.1665973 39.5654534,28.9274115 39.701461,28.6788459 C42.4497527,25.9399341 45.1230057,23.6465644 47.9088167,21.9816436 C50.7837362,20.251064 53.6914851,19.3224604 56.7586912,19.1067242 C59.8258973,18.886298 63.1088396,19.3646696 66.5512391,20.2323044 C70.0030184,21.0764895 73.5345263,22.3380774 77.4928167,23.3792391 C75.2979353,19.9274597 72.3104578,17.1369588 68.7226709,15.0311858 C65.1489537,12.9676221 60.80609,11.6216157 56.2381103,11.9592898 C51.6701306,12.2453748 47.2193989,14.4683957 44.2928903,17.6762993 C43.3595967,18.6987013 42.5529309,19.800832 41.863513,20.9545517 C41.9291718,20.2698237 42.0182803,19.5850958 42.0089004,18.886298 C41.9901408,14.5434344 40.1657628,9.91448573 36.971929,6.65030311 C33.8062346,3.33922131 29.6791072,1.43042486 25.6457781,0.572169943 C21.5749296,-0.267325301 17.4806316,-0.196976538 13.5411008,0.895774255 C17.1804769,2.76705136 20.6463259,4.19747622 23.7791909,5.88584654 C26.9120558,7.54607736 29.6744172,9.38452505 31.8036398,11.6028561 C33.9375523,13.8164971 35.4758453,16.4522308 36.4513481,19.6648244 C37.2439442,22.2348992 37.6847964,25.0816791 37.9333621,28.1864046 C37.2955333,25.0207102 35.7291008,22.019163 33.445111,19.4819176 C30.5467419,16.2458744 26.1194597,13.9853342 21.5608599,13.6617299 C17.00226,13.2818465 12.6453266,14.5903335 9.05753963,16.6210679 C5.45099302,18.6940114 2.44006595,21.4610628 0.212355105,24.8893925 C4.17533545,23.8763703 7.72091313,22.6523018 11.1820723,21.8362562 C14.6244718,21.0014509 17.912104,20.5512188 20.9793101,20.7997844 C24.0418263,21.0389702 26.9401953,21.9910235 29.801045,23.7497425 C31.2924388,24.6548966 32.7510032,25.7570273 34.2048776,26.9951655 C32.6665847,26.8403982 31.0298034,27.1077235 29.632208,27.8440406 C27.7750006,28.7820241 26.4055447,30.325007 25.5003906,31.9664781 C24.6046164,33.6267089 24.0981053,35.4088776 24.0512061,37.266085 C25.3409334,35.9341484 26.4196145,34.6162815 27.5686443,33.4766316 C28.6989144,32.3322917 29.862014,31.3755485 31.1048421,30.7377197 C32.3429803,30.1045808 33.6936766,29.7809765 35.2178998,29.7809765 C35.8369689,29.7762866 36.4935574,29.8513253 37.1548358,29.9357438 C35.8228992,31.7554318 34.5941408,33.6548484 33.4873202,35.6199239 C30.9125555,40.2160431 28.8630615,45.117007 27.1512416,50.1164591 C25.4394217,55.1159112 24.0605859,60.2373012 22.9396956,65.4149702 C21.8281852,70.6348484 21.6968675,80.4555358 21.1387673,85.9990184 L33.0746075,85.9896386 C32.6243754,81.2903412 31.737981,71.4321344 31.8270894,66.4889613 C31.9255777,61.4895092 32.2726316,56.4759873 32.9479797,51.5140545 C33.6327077,46.5474318 34.6457299,41.6136386 36.2121623,36.8346126 C36.8968903,34.761669 37.7176259,32.7168649 38.6509195,30.72365 C39.0636322,30.6251617 39.4622752,30.5360533 39.8656081,30.4422549 C39.9640964,30.4657045 40.0578947,30.4797743 40.1610729,30.5032238 C40.1376233,30.4657045 40.1047939,30.4328751 40.0766544,30.4000457 C40.3345999,30.3390767 40.5972353,30.2781078 40.8504908,30.2218288 C41.7978542,30.8643475 42.6795587,31.520936 43.3924261,32.2478732 C44.4664172,33.3218643 45.1933545,34.5037235 45.6248269,35.8356601 C46.0562993,37.1582169 46.2016867,38.6636804 46.1923069,40.2723221 C46.1969968,41.8856538 46.0281598,43.5740241 45.9953304,45.4359214 C47.2756779,44.0852251 48.180832,42.4718935 48.7201725,40.6615853 C49.2360634,38.8606569 49.3626912,36.8017831 48.7107926,34.8273278 C48.0917235,32.8481826 46.6284692,31.1316728 44.8978897,30.1936893 C44.5273862,29.9920228 44.1475029,29.8325656 43.7582397,29.6871782 C45.6248269,29.3917134 47.4210653,29.2275663 49.1516449,29.241636 C52.5096259,29.241636 55.4783437,29.9498136 58.2172555,31.3520989 C60.9561674,32.7496944 63.5168624,34.8554673 66.0118985,37.3739531 C68.5303843,39.8877489 70.9081725,42.7861179 73.7502625,45.7313862 C73.6517743,41.6417781 72.5402638,37.7069372 70.5564287,34.0488015 C68.5679036,30.4281852 65.5475967,27.0326848 61.4626785,24.9597413 L61.4626785,24.9597413 Z" id="Shape" fill="#FFFFFF" sketch:type="MSShapeGroup"></path>
            <g id="cocktail17" transform="translate(38.337349, 46.626506)" fill="#FF99C9" sketch:type="MSShapeGroup">
                <path d="M31.4646024,9.58019277 C31.755759,9.27556627 31.8376145,8.82587952 31.6718313,8.43939759 C31.5060482,8.05187952 31.124747,7.80009639 30.7040723,7.80009639 L22.6905301,7.80009639 L23.9090361,5.1879759 C25.0715904,5.55477108 26.3201446,5.08436145 26.8143855,4.02853012 C27.3065542,2.9726988 26.8641205,1.71481928 25.8362651,1.05893976 L26.0973735,0.499421687 C26.1792289,0.323277108 26.1035904,0.115012048 25.9274458,0.0331566265 C25.7513012,-0.0486987952 25.5430361,0.026939759 25.4611807,0.203084337 L25.2000723,0.76260241 C24.0364819,0.395807229 22.7889639,0.866216867 22.295759,1.92204819 C21.8025542,2.97787952 22.2460241,4.23575904 23.2738795,4.89163855 L21.915494,7.79906024 L1.79978313,7.79906024 C1.37807229,7.79906024 0.997807229,8.05084337 0.832024096,8.43836145 C0.666240964,8.82587952 0.748096386,9.27556627 1.03925301,9.57915663 L15.2914217,24.4695904 L15.2914217,36.8805301 L11.3323133,36.8805301 C10.8235663,36.8805301 10.4111807,37.2929157 10.4111807,37.8016627 C10.4111807,38.3104096 10.8225301,38.7238313 11.3323133,38.7238313 L21.1725783,38.7238313 C21.6813253,38.7238313 22.0937108,38.3114458 22.0937108,37.8016627 C22.0937108,37.2939518 21.6823614,36.8805301 21.1725783,36.8805301 L17.2124337,36.8805301 L17.2124337,24.4706265 L31.4646024,9.58019277 L31.4646024,9.58019277 Z M20.9332289,9.90554217 L19.5706988,12.828506 L8.60310843,12.828506 L16.2529639,20.8202892 L23.9028193,12.828506 L20.3457349,12.828506 L21.7082651,9.90554217 L28.2390843,9.90554217 L16.2529639,22.4283855 L4.26477108,9.90554217 L20.9332289,9.90554217 L20.9332289,9.90554217 Z" id="Shape"></path>
            </g>
        </g>
    </g>
</svg>