<?xml version="1.0" encoding="UTF-8" standalone="no"?>
<svg width="104px" height="86px" viewBox="0 0 104 86" version="1.1" xmlns="http://www.w3.org/2000/svg" xmlns:xlink="http://www.w3.org/1999/xlink" xmlns:sketch="http://www.bohemiancoding.com/sketch/ns">
    <!-- Generator: Sketch 3.3.2 (12043) - http://www.bohemiancoding.com/sketch -->
    <title>diner</title>
    <desc>Created with Sketch.</desc>
    <defs></defs>
    <g id="Page-1" stroke="none" stroke-width="1" fill="none" fill-rule="evenodd" sketch:type="MSPage">
        <g id="diner" sketch:type="MSLayerGroup">
            <g id="Group" sketch:type="MSShapeGroup">
                <path d="M74.3879765,33.7676471 C74.7147765,34.2730235 75.2636588,34.5482235 75.8236706,34.5482235 C76.1413647,34.5482235 76.4626,34.4596941 76.7489294,34.2745412 C77.5401294,33.7625882 77.7677765,32.7058 77.2558235,31.9135882 C77.2032118,31.8326471 71.9465882,23.4931765 76.4064471,17.8075647 C78.8716118,14.6650235 79.3021176,10.7064941 77.6524353,6.35995294 C76.4742353,3.25585882 74.6292824,1.03048235 74.5513765,0.9374 C73.9468471,0.213988235 72.8698235,0.117870588 72.1464118,0.722905882 C71.423,1.32743529 71.3273882,2.40243529 71.9298941,3.12584706 C72.0128588,3.22651765 77.8633882,10.4166235 73.7192,15.7000588 C67.7518118,23.3090353 74.1142941,33.3442235 74.3879765,33.7676471 L74.3879765,33.7676471 Z" id="Shape" fill="#FFFFFF"></path>
                <path d="M85.8477294,33.7676471 C86.1745294,34.2730235 86.7229059,34.5482235 87.2829176,34.5482235 C87.6006118,34.5482235 87.9218471,34.4596941 88.2086824,34.2745412 C89.0003882,33.7625882 89.2275294,32.7058 88.7155765,31.9135882 C88.6634706,31.8326471 83.4063412,23.4931765 87.8662,17.8075647 C90.3313647,14.6650235 90.7618706,10.7064941 89.1121882,6.35995294 C87.9334824,3.25585882 86.0885294,1.03048235 86.0106235,0.9374 C85.4066,0.213988235 84.3290706,0.117870588 83.6056588,0.722905882 C82.8832588,1.32692941 82.7866353,2.40192941 83.3891412,3.12534118 C83.4488353,3.19768235 89.3312353,10.406 85.1784471,15.7000588 C79.2110588,23.3090353 85.5740471,33.3442235 85.8477294,33.7676471 L85.8477294,33.7676471 Z" id="Shape" fill="#FF99C9"></path>
                <path d="M14.1561059,34.5588471 C14.4829059,35.0642235 15.0312824,35.3394235 15.5912941,35.3394235 C15.9089882,35.3394235 16.2302235,35.2508941 16.5165529,35.0657412 C17.3082588,34.5537882 17.5354,33.4964941 17.0229412,32.7047882 C16.9708353,32.6238471 11.7137059,24.2843765 16.1740706,18.5987647 C18.6392353,15.4562235 19.0697412,11.4976941 17.4200588,7.15115294 C16.2413529,4.04705882 14.3969059,1.82168235 14.319,1.7286 C13.7144706,1.00518824 12.6379529,0.909070588 11.9140353,1.51410588 C11.1916353,2.11812941 11.0950118,3.19312941 11.6975176,3.91654118 C11.7577176,3.98888235 17.6396118,11.1972 13.4873294,16.4912588 C7.51892941,24.1002353 13.8819176,34.1349176 14.1561059,34.5588471 L14.1561059,34.5588471 Z" id="Shape" fill="#FFFFFF"></path>
                <path d="M25.6153529,34.5588471 C25.9421529,35.0642235 26.4905294,35.3394235 27.0505412,35.3394235 C27.3682353,35.3394235 27.6894706,35.2508941 27.9763059,35.0657412 C28.7680118,34.5537882 28.9951529,33.4964941 28.4826941,32.7047882 C28.4305882,32.6238471 23.1739647,24.2843765 27.6338235,18.5987647 C30.0989882,15.4562235 30.5294941,11.4976941 28.8803176,7.15115294 C27.7021176,4.04705882 25.8571647,1.82168235 25.7792588,1.7286 C25.1747294,1.00518824 24.0982118,0.909070588 23.3742941,1.51410588 C22.6518941,2.11812941 22.5552706,3.19312941 23.1577765,3.91654118 C23.2179765,3.98888235 29.0998706,11.1972 24.9470824,16.4912588 C18.9786824,24.1002353 25.3416706,34.1349176 25.6153529,34.5588471 L25.6153529,34.5588471 Z" id="Shape" fill="#FF99C9"></path>
                <path d="M97.5766118,72.2465765 L93.955,72.2465765 C93.1046118,50.9474118 76.4251647,33.6528118 55.3865294,31.8265765 L55.3865294,30.0878588 C57.5228706,28.81 58.8492941,26.5193647 58.8492941,23.9727529 C58.8492941,20.0309176 55.6414941,16.8236235 51.6996588,16.8236235 L51.5453647,16.8236235 C47.6030235,16.8236235 44.3957294,20.0309176 44.3957294,23.9727529 C44.3957294,26.5193647 45.7226588,28.8105059 47.8579882,30.0878588 L47.8579882,31.8265765 C26.8193529,33.6528118 10.1399059,50.9474118 9.28951765,72.2465765 L5.66790588,72.2465765 C2.54256471,72.2465765 0,74.7891412 0,77.9139765 L0,80.0488 C0,83.1761647 2.54256471,85.7197412 5.6674,85.7197412 L97.5771176,85.7197412 C100.702459,85.7197412 103.244518,83.1761647 103.244518,80.0488 L103.244518,77.9139765 C103.244012,74.7891412 100.701447,72.2465765 97.5766118,72.2465765 L97.5766118,72.2465765 Z M47.8094235,23.9727529 C47.8094235,21.9138118 49.4849059,20.2383294 51.5443529,20.2383294 L51.6986471,20.2383294 C53.7580941,20.2383294 55.4335765,21.9138118 55.4335765,23.9727529 C55.4335765,25.5121529 54.4997176,26.8739882 53.0544118,27.4410824 C52.4008118,27.6975647 51.9713176,28.3284 51.9713176,29.0305647 L51.9713176,31.6667176 L51.2716824,31.6667176 L51.2716824,29.0305647 C51.2716824,28.3284 50.8416824,27.6980706 50.1885882,27.4410824 C48.7432824,26.8734824 47.8094235,25.5121529 47.8094235,23.9727529 L47.8094235,23.9727529 Z M99.8293059,80.0482941 C99.8293059,81.2922588 98.8185529,82.3045294 97.5766118,82.3045294 L5.66689412,82.3045294 C4.42444706,82.3045294 3.4142,81.2922588 3.4142,80.0482941 L3.4142,77.9134706 C3.4142,76.6715294 4.42495294,75.6612824 5.66689412,75.6612824 L8.47403529,75.6612824 C8.48971765,75.6617882 8.50438824,75.6638118 8.52007059,75.6638118 L69.8335176,75.6638118 C70.7759765,75.6638118 71.5408706,74.8994235 71.5408706,73.9564588 C71.5408706,73.014 70.7759765,72.2491059 69.8335176,72.2491059 L12.7087765,72.2491059 C13.6021647,51.6536235 30.5947529,35.1638824 51.3870235,35.0809176 L51.8564824,35.0809176 C72.6497647,35.1638824 89.6408353,51.6536235 90.5347294,72.2491059 L80.8764235,72.2491059 C79.9334588,72.2491059 79.1690706,73.014 79.1690706,73.9564588 C79.1690706,74.8994235 79.9334588,75.6638118 80.8764235,75.6638118 L94.0612353,75.6612824 L97.5761059,75.6612824 C98.8185529,75.6612824 99.8288,76.6715294 99.8288,77.9134706 L99.8288,80.0482941 L99.8293059,80.0482941 Z" id="Shape" fill="#FFFFFF"></path>
            </g>
        </g>
    </g>
</svg>