<?xml version="1.0" encoding="UTF-8" standalone="no"?>
<svg width="52px" height="86px" viewBox="0 0 52 86" version="1.1" xmlns="http://www.w3.org/2000/svg" xmlns:xlink="http://www.w3.org/1999/xlink" xmlns:sketch="http://www.bohemiancoding.com/sketch/ns">
    <!-- Generator: Sketch 3.3.2 (12043) - http://www.bohemiancoding.com/sketch -->
    <title>church</title>
    <desc>Created with Sketch.</desc>
    <defs></defs>
    <g id="Page-1" stroke="none" stroke-width="1" fill="none" fill-rule="evenodd" sketch:type="MSPage">
        <g id="church" sketch:type="MSLayerGroup">
            <g id="Group" sketch:type="MSShapeGroup">
                <path d="M3.24539007,85.9630901 L18.2460993,85.9630901 L18.2460993,70.3686695 C18.2460993,66.0964442 21.7128582,62.626824 25.9815603,62.626824 C30.2503546,62.626824 33.7170213,66.0965365 33.7170213,70.3686695 L33.7170213,85.9630901 L48.7176383,85.9630901 C50.4971631,85.9630901 51.9445887,84.51447 51.9445887,82.7334764 L51.9445887,62.5900064 C51.9445887,61.6025751 51.493,60.6706009 50.7184397,60.0524528 L37.6170213,49.680779 L37.6170213,31.0688841 L14.3460993,31.0688841 L14.3460993,49.6806867 L1.24468085,60.0523605 C0.470212766,60.6613734 0.0184397163,61.6024828 0.0184397163,62.5899142 L0.0184397163,82.7425193 C0.0184397163,84.5236052 1.46595745,85.9630901 3.24539007,85.9630901 L3.24539007,85.9630901 Z M21.9248227,40.9791845 C21.9248227,38.7369099 23.7411348,36.9190987 25.9815603,36.9190987 C28.2219858,36.9190987 30.0382979,38.7369099 30.0382979,40.9791845 L30.0382979,49.6899142 L25.9815603,49.6899142 L21.9248227,49.6899142 L21.9248227,40.9791845 L21.9248227,40.9791845 Z" id="Shape" fill="#FF99C9"></path>
                <path d="M14.6320071,27.9961373 L37.3312057,27.9961373 C38.7419362,27.9961373 39.6269504,26.4828326 38.9446809,25.2555794 L28.1390071,5.80407725 C28.8397163,5.19506438 29.2914894,4.3 29.2914894,3.30343348 C29.2914894,1.47639485 27.8163121,0 25.9907801,0 C24.1652482,0 22.6900709,1.47639485 22.6900709,3.30343348 C22.6900709,4.30922747 23.1326241,5.20429185 23.8425532,5.80407725 L13.0185319,25.2555794 C12.3361702,26.4828326 13.2304965,27.9961373 14.6320071,27.9961373 L14.6320071,27.9961373 Z" id="Shape" fill="#FFFFFF"></path>
            </g>
        </g>
    </g>
</svg>