<?xml version="1.0" encoding="UTF-8" standalone="no"?>
<svg width="63px" height="83px" viewBox="0 0 63 83" version="1.1" xmlns="http://www.w3.org/2000/svg" xmlns:xlink="http://www.w3.org/1999/xlink" xmlns:sketch="http://www.bohemiancoding.com/sketch/ns">
    <!-- Generator: Sketch 3.3.3 (12081) - http://www.bohemiancoding.com/sketch -->
    <title>brunch</title>
    <desc>Created with Sketch.</desc>
    <defs></defs>
    <g id="Page-1" stroke="none" stroke-width="1" fill="none" fill-rule="evenodd" sketch:type="MSPage">
        <g id="brunch" sketch:type="MSLayerGroup">
            <g id="noun_49655_cc" sketch:type="MSShapeGroup">
                <path d="M41.5971625,4.84538085 C41.0531934,5.00907038 40.4965607,5.22154099 39.9072369,5.49176822 C35.5836544,1.1530738 29.9156748,-0.490526023 24.6531951,1.09304314 C19.2771181,2.71079568 15.2778255,7.36960098 13.8673625,13.6151228 C12.7477315,13.6696835 11.6580869,13.8545553 10.6201315,14.1668936 C3.05389703,16.4437016 -1.3364837,24.7566366 0.83309911,32.6968096 C3.00286806,40.6376638 10.9238465,45.2459025 18.4907301,42.9688992 C18.6413277,42.9235819 18.7964646,42.871738 18.9586465,42.8148253 L22.97915,57.5289413 C23.1206121,58.0466602 23.6344846,58.3461549 24.1284709,58.1975061 L53.740386,49.2867798 C54.2337232,49.1383262 54.5189272,48.598376 54.377465,48.0806571 L50.3508191,33.3440611 C55.413116,31.4417992 59.0450245,26.7136644 59.7047651,21.0449643 C59.9364267,19.0518462 59.7849043,17.0575539 59.2546074,15.1167893 C57.0850245,7.17661629 49.1640461,2.56837755 41.5971625,4.84538085 L41.5971625,4.84538085 L41.5971625,4.84538085 Z M52.3351303,47.6815526 L24.5089659,56.0549162 L20.7691531,42.3680635 C22.7766778,41.410837 24.5251322,40.0479526 25.9804991,38.306603 C27.2234184,38.6749682 28.4847402,38.8792934 29.7442604,38.9381912 C31.4226069,39.1261352 33.1617904,38.9942493 34.880681,38.4770061 C36.6729231,37.9376901 38.2745865,37.0325582 39.6395767,35.8705822 C40.3461912,35.343157 41.0208467,34.7604734 41.6485087,34.1137857 C43.9431114,34.6802611 46.3320088,34.6919865 48.6385914,34.1505014 L52.3357794,47.6813572 L52.3351303,47.6815526 L52.3351303,47.6815526 Z M57.8599667,20.808321 C57.2737692,25.8488958 53.8908384,30.287578 48.9548701,31.7728944 L48.9548701,31.7728944 C46.9367315,32.3801864 44.8364643,32.4349491 42.811958,31.954546 C44.0881008,29.5829877 44.686006,26.8117394 44.3958625,23.9553287 C44.3410206,23.420391 43.8829075,23.0318698 43.3731624,23.0894221 C42.863971,23.143859 42.4928211,23.6263659 42.5478491,24.1619849 C42.8118793,26.7608543 42.206504,29.2733746 40.9628696,31.3859702 L40.9356829,31.3764578 L40.429131,31.988176 C38.7457541,34.023727 36.6057567,35.4756816 34.2435804,36.1865004 C31.5659279,36.9922514 28.708847,36.8405294 25.9813301,35.7489365 L25.8519786,35.6971825 C23.8575099,34.5862641 22.1899958,32.8439494 21.1511102,30.5998885 C20.9261967,30.1161281 20.3689077,29.9122669 19.9096003,30.1492678 C19.4482501,30.3839344 19.2552879,30.9683752 19.4795522,31.4523309 C20.5404644,33.7435807 22.1629867,35.5834773 24.1056798,36.8802737 C22.8104193,38.5262625 21.1805989,39.7834119 19.318662,40.5921434 L19.3180129,40.5923387 C19.1276557,40.6746859 18.936091,40.7551848 18.7403453,40.8280951 C18.490636,40.9246163 18.2379532,41.0153972 17.9796003,41.09314 C11.3980928,43.0736269 4.50801416,39.0656398 2.62061113,32.1581798 C0.73339423,25.251401 4.55327631,18.0206054 11.1341347,16.0403138 C12.181827,15.7250454 13.2956989,15.5594232 14.4426401,15.5482498 L15.3785586,15.5386503 L15.5688591,14.5768167 C16.7176793,8.76979094 20.3060658,4.42999754 25.1673845,2.96714452 C29.9112109,1.53964687 35.0597916,3.13090935 38.9387471,7.22299401 L39.5144911,7.83119616 L40.2552963,7.46746629 C40.9228549,7.13904754 41.5297333,6.8945011 42.1113518,6.71948223 C48.6928593,4.73899527 55.5829379,8.74698241 57.4701548,15.6537612 C57.9400582,17.3812122 58.0556443,19.1282914 57.8599667,20.808321 L57.8599667,20.808321 L57.8599667,20.808321 Z" id="Shape" fill="#FFFFFF"></path>
                <path d="M62.9112633,65.4856883 C62.8868015,65.4814972 62.6891101,65.477306 62.664149,65.4731149 C59.0982149,64.8758765 52.1275951,64.3750346 48.4693052,64.9345526 C46.5163535,65.1839258 44.6263036,65.6486191 42.7192802,66.1295532 C41.1911653,66.5146147 40.1083554,66.5078041 38.5442967,66.5931987 L38.4229861,66.5926748 C36.8669149,66.5067563 35.7856026,66.5140908 34.26248,66.1300771 C32.3559558,65.6496669 30.4659059,65.1844497 28.5129542,64.9350765 C24.8406861,64.3734629 17.8296294,64.8816394 14.2766751,65.4820211 C14.2656922,65.4835927 14.0819789,65.4856883 14.0714953,65.4877839 C14.0714953,65.4877839 14.0789836,68.8527504 14.0714953,68.99263 C14.0829774,68.9978689 14.2671899,69.0031078 14.2786719,69.0083468 C15.131341,69.4106968 15.470312,70.6135558 15.5931203,70.9451802 C15.7423873,71.348578 15.8037914,71.7765989 15.8811707,72.1999046 C15.9630429,72.6473095 16.046912,73.0947144 16.1312803,73.5421192 C16.1712179,73.7527243 16.2111556,73.9638533 16.2525909,74.1749823 C16.576086,75.8273417 16.6963982,77.5781931 17.5500658,79.0524288 C18.3947473,80.5104238 19.8045468,81.3156478 21.3636133,81.7221889 C22.326111,81.9731338 23.3225557,82.0674346 24.3080175,82.1512575 C26.1456493,82.3089494 28.1070877,82.1166806 29.8838145,81.5896439 C30.6735818,81.3559875 31.4154239,81.0023596 32.0783891,80.4915636 C33.33992,79.517646 34.309906,78.4059445 34.9683782,76.9007991 C35.587412,75.4836677 36.0976156,73.9685684 36.5763684,72.4985238 C36.7650738,71.9190978 37.0012053,70.9310351 38.1758718,70.975566 L38.8043907,70.975566 C39.9800557,70.9305112 40.2156879,71.9185739 40.4048926,72.4985238 C40.8836453,73.9685684 41.3933497,75.4836677 42.013382,76.9007991 C42.671355,78.4059445 43.6413409,79.517646 44.9028719,80.4915636 C45.5653379,81.0023596 46.3076792,81.3554636 47.0974465,81.5896439 C48.8746725,82.1166806 50.8356117,82.3089494 52.6737426,82.1512575 C53.6597037,82.0674346 54.6561484,81.9726099 55.6176476,81.7221889 C57.1772134,81.3161717 58.5870129,80.5109477 59.4316944,79.0524288 C60.2858612,77.578717 60.405175,75.8278656 60.7296685,74.1749823 C60.7706046,73.9638533 60.8110415,73.7532482 60.8509791,73.5421192 C60.9353474,73.0952383 61.0192165,72.6473095 61.1010887,72.1999046 C61.178468,71.7765989 61.2393729,71.348578 61.3886399,70.9451802 C61.5094513,70.6187947 61.8399355,69.4484171 62.6646482,69.0277308 C62.6891101,69.0156813 62.885803,69.0041556 62.9112633,68.99263 C62.9032758,68.8522266 62.9112633,65.4856883 62.9112633,65.4856883 L62.9112633,65.4856883 Z M34.9544,73.0124631 C34.6408894,74.2692831 34.049812,76.0709521 33.3069714,77.1323599 C32.6514945,78.0701289 32.0025075,78.8439192 31.0654701,79.4767823 C29.4415049,80.573291 27.2848711,80.8158536 25.4073017,80.7901828 C23.2995916,80.7608448 20.8853598,80.4941831 19.3422684,78.9539368 C18.0283193,77.642632 17.9184907,75.5308181 17.8366185,73.0486117 C17.7976793,71.8729952 17.8790523,70.5150638 18.1326564,69.3572597 C18.6298803,67.0867062 21.229323,66.449652 22.8502928,66.2657654 C23.9785318,66.1374116 25.1277381,66.1195992 26.2789412,66.1898009 C28.575856,66.331776 30.1144545,66.6592093 32.2695906,67.3470811 C33.2984847,67.6750383 34.6408894,68.4383509 35.0577387,69.537479 C35.458613,70.5957434 35.2199855,71.9473881 34.9544,73.0124631 L34.9544,73.0124631 Z M59.1456409,73.0486117 C59.0637687,75.5308181 58.9539401,77.642632 57.6404902,78.9539368 C56.0968996,80.4936592 53.6826678,80.7608448 51.5754569,80.7901828 C49.6978875,80.8158536 47.5407545,80.573291 45.9172885,79.4767823 C44.9797519,78.8439192 44.3312641,78.0701289 43.6757872,77.1323599 C42.9334459,76.071476 42.3418692,74.2692831 42.0283586,73.0124631 C41.7627731,71.9473881 41.5236464,70.5952195 41.9250199,69.537479 C42.3418692,68.437827 43.6837747,67.6750383 44.713168,67.3470811 C46.8683041,66.6592093 48.4069026,66.3312521 50.7038174,66.1898009 C51.8550205,66.1190753 53.0037276,66.1368877 54.1319666,66.2657654 C55.7529364,66.449652 58.3523791,67.0867062 58.8491038,69.3572597 C59.1032071,70.5150638 59.1845801,71.8729952 59.1456409,73.0486117 L59.1456409,73.0486117 Z" id="Shape" fill="#FF99C9"></path>
            </g>
        </g>
    </g>
</svg>