<?xml version="1.0" encoding="UTF-8" standalone="no"?>
<svg width="150px" height="48px" viewBox="0 0 150 48" version="1.1" xmlns="http://www.w3.org/2000/svg" xmlns:xlink="http://www.w3.org/1999/xlink" xmlns:sketch="http://www.bohemiancoding.com/sketch/ns">
    <!-- Generator: Sketch 3.3.2 (12043) - http://www.bohemiancoding.com/sketch -->
    <title>logo</title>
    <desc>Created with Sketch.</desc>
    <defs></defs>
    <g id="Page-1" stroke="none" stroke-width="1" fill="none" fill-rule="evenodd" sketch:type="MSPage">
        <g id="logo" sketch:type="MSLayerGroup" fill="#FFFFFF">
            <g id="noun_155801_cc" sketch:type="MSShapeGroup">
                <path d="M86.2,31.9 C86,31.8 85.8,31.8 85.6,31.8 C85.5,31.8 80,31.7 65.6,27.5 L65.6,21 C65.6,11.7 58.1,4.2 48.8,4.2 L41.2,4.2 C31.9,4.2 24.4,11.7 24.4,21 L24.4,27.5 C10.1,31.7 4.5,31.8 4.4,31.8 C4.2,31.8 4,31.8 3.8,31.9 C3,32.3 0.5,33.4 0.5,35.5 C0.5,43.6 40.4,43.8 45,43.8 C49.6,43.8 89.5,43.6 89.5,35.5 C89.5,33.4 87,32.2 86.2,31.9 L86.2,31.9 Z M27.4,22.5 L62.6,22.5 L62.6,27.1 L27.4,27.1 L27.4,22.5 L27.4,22.5 Z M41.2,7.2 L48.8,7.2 C55.9,7.2 61.8,12.6 62.5,19.5 L27.5,19.5 C28.2,12.6 34.1,7.2 41.2,7.2 L41.2,7.2 Z M45,40.8 C17.7,40.8 4.6,37.3 3.5,35.5 C3.6,35.4 3.9,35.1 4.7,34.7 C6.2,34.6 12.4,34.1 26,30.1 L63.8,30.1 C77.4,34.1 83.6,34.7 85.1,34.7 C85.8,35.1 86.2,35.3 86.3,35.5 C85.1,37.4 72,40.8 45,40.8 L45,40.8 Z" id="Shape"></path>
                <path d="M100.356757,45.7418919 L120.883784,47.25 C121.554054,47.25 122.140541,46.8310811 122.224324,46.1608108 L124.151351,33.5932432 L126.078378,46.1608108 C126.162162,46.7472973 126.664865,47.25 127.335135,47.25 L127.418919,47.25 L147.945946,45.7418919 C148.281081,45.7418919 148.616216,45.5743243 148.783784,45.322973 C149.035135,45.0716216 149.118919,44.7364865 149.035135,44.4013514 L144.510811,8.62567568 L144.510811,2.00675676 C144.510811,1.33648649 143.924324,0.75 143.254054,0.75 L104.713514,0.75 C104.043243,0.75 103.456757,1.33648649 103.456757,2.00675676 L103.456757,8.62567568 L99.1,44.4013514 C99.1,44.7364865 99.1837838,45.0716216 99.3513514,45.322973 C99.6864865,45.5743243 100.021622,45.7418919 100.356757,45.7418919 L100.356757,45.7418919 Z M106.054054,3.17972973 L142.081081,3.17972973 L142.081081,7.36891892 L125.994595,7.36891892 L125.408108,6.02837838 C125.408108,5.52567568 125.072973,5.10675676 124.654054,4.93918919 C124.486486,4.85540541 124.318919,4.85540541 124.151351,4.85540541 C123.983784,4.85540541 123.816216,4.85540541 123.648649,4.93918919 C123.22973,5.10675676 122.894595,5.60945946 122.894595,6.02837838 L122.308108,7.36891892 L106.054054,7.36891892 L106.054054,3.17972973 L106.054054,3.17972973 Z M105.886486,9.88243243 L121.135135,9.88243243 L116.694595,20.2716216 C116.443243,20.9418919 116.694595,21.6121622 117.364865,21.9472973 C117.532432,22.0310811 117.7,22.0310811 117.867568,22.0310811 C118.37027,22.0310811 118.789189,21.7797297 119.040541,21.277027 L123.9,9.88243243 L124.318919,9.88243243 L129.178378,21.277027 C129.345946,21.7797297 129.848649,22.0310811 130.351351,22.0310811 C130.518919,22.0310811 130.686486,22.0310811 130.854054,21.9472973 C131.524324,21.6959459 131.775676,20.9418919 131.524324,20.2716216 L127.083784,9.88243243 L142.248649,9.88243243 L146.437838,43.3959459 L128.424324,44.7364865 L125.408108,25.2986486 C125.324324,24.7121622 124.821622,24.2094595 124.151351,24.2094595 C123.481081,24.2094595 122.978378,24.6283784 122.894595,25.2986486 L119.878378,44.7364865 L101.864865,43.3959459 L105.886486,9.88243243 L105.886486,9.88243243 Z" id="Shape"></path>
            </g>
        </g>
    </g>
</svg>