<?xml version="1.0" encoding="UTF-8" standalone="no"?>
<svg width="71px" height="85px" viewBox="0 0 71 85" version="1.1" xmlns="http://www.w3.org/2000/svg" xmlns:xlink="http://www.w3.org/1999/xlink" xmlns:sketch="http://www.bohemiancoding.com/sketch/ns">
    <!-- Generator: Sketch 3.3.2 (12043) - http://www.bohemiancoding.com/sketch -->
    <title>parties</title>
    <desc>Created with Sketch.</desc>
    <defs></defs>
    <g id="Page-1" stroke="none" stroke-width="1" fill="none" fill-rule="evenodd" sketch:type="MSPage">
        <g id="parties" sketch:type="MSLayerGroup">
            <g id="man204" transform="translate(0.009343, 0.000000)" fill="#FF99C9" sketch:type="MSShapeGroup">
                <g id="Group">
                    <path d="M23.9049293,38.9921196 L23.9049293,48.2762447 C23.9049293,49.0235683 24.510779,49.6295436 25.2586051,49.6295436 C26.0064312,49.6295436 26.6122809,49.0235683 26.6122809,48.2762447 L26.6122809,39.8405856 L22.3243426,35.3146798 C21.387801,34.3258707 21.0182854,32.9448048 21.3362874,31.6204038 L22.3681919,27.3205295 L21.1621464,27.3205295 L22.0667748,25.9483842 C22.2575006,26.0355803 22.4581522,26.1044326 22.6688552,26.1471511 C22.8864686,25.5047394 23.2554815,24.9437442 23.7304114,24.5008532 C24.352846,23.9210116 25.1568344,23.546596 26.0372137,23.4538716 C26.169013,23.4400508 26.3020687,23.4311302 26.4375117,23.4303763 L26.4375117,19.0009642 C26.4375117,18.2535151 25.8315363,17.6476654 25.0842128,17.6476654 C24.3368893,17.6476654 23.730914,18.2540176 23.730914,19.0009642 L23.730914,20.6341953 C23.569086,20.6050462 23.4029862,20.5872049 23.2326145,20.5872049 C23.0611121,20.5872049 22.8942584,20.6049205 22.7312997,20.6344466 L22.7312997,16.7806043 C22.7312997,16.0331551 22.12545,15.4273054 21.3776239,15.4273054 C20.6303004,15.4273054 20.024325,16.0331551 20.024325,16.7806043 L20.024325,24.1293274 L19.3688464,25.123916 L18.7133678,24.1293274 L18.7133678,16.7806043 C18.7133678,16.0331551 18.1073925,15.4273054 17.360069,15.4273054 C16.6127454,15.4273054 16.0067701,16.0331551 16.0067701,16.7806043 L16.0067701,20.6344466 C15.8438114,20.6052975 15.6769577,20.5872049 15.5054552,20.5872049 C15.1598118,20.5872049 14.8299994,20.6526648 14.5239335,20.7671254 L14.5239335,14.473802 C14.5239335,13.7263529 13.9179582,13.1205032 13.1702577,13.1205032 C12.4225573,13.1205032 11.8169589,13.7264785 11.8169589,14.473802 L11.8169589,21.8225251 L10.9860829,23.0832252 L10.9860829,16.7806043 C10.9860829,16.0331551 10.3801075,15.4273054 9.63278401,15.4273054 C8.8854605,15.4273054 8.27948516,16.0331551 8.27948516,16.7806043 L8.27948516,18.4603232 C7.97341924,18.3461138 7.64398375,18.2804026 7.29796342,18.2804026 C5.7470284,18.2804026 4.48972066,19.5375847 4.48972066,21.0885198 C4.48972066,22.6394548 5.74690276,23.8967625 7.29796342,23.8967625 C7.64360683,23.8967625 7.97341924,23.8313026 8.27948516,23.716842 L8.27948516,24.5350281 C8.27948516,24.6996201 8.31290615,24.8610712 8.3705762,25.0133503 L7.29796342,25.0133503 L4.88147499,25.0133503 L2.77808848,21.8222738 L2.77808848,14.4740533 C2.77808848,13.7266041 2.17211314,13.1207544 1.42478962,13.1207544 C0.677466106,13.1207544 0.0713651239,13.7264785 0.0713651239,14.473802 L0.0713651239,22.2284771 C0.0713651239,22.4933322 0.149012389,22.7520307 0.294758065,22.9731621 L3.94480774,28.5109952 L3.94480774,34.4275158 C3.92746903,34.514335 3.91792017,34.6039183 3.91792017,34.6958888 L3.91792017,45.9695681 C3.91792017,46.7170173 4.52376987,47.322867 5.27121903,47.322867 C6.01866819,47.322867 6.62489481,46.7170173 6.62489481,45.9695681 L6.62489481,36.6851917 L7.29771213,36.6851917 L7.97052945,36.6851917 L7.97052945,45.9693169 C7.97052945,46.716766 8.57650479,47.3226157 9.32420524,47.3226157 C10.0719057,47.3226157 10.677881,46.716766 10.677881,45.9693169 L10.677881,34.6956376 C10.677881,34.6037927 10.6683322,34.5142093 10.6509935,34.4272645 L10.6509935,28.5387623 L12.1530534,30.8175462 L12.1530534,36.7340667 C12.1357147,36.8208859 12.1261658,36.9104693 12.1261658,37.0024398 L12.1261658,48.2762447 C12.1261658,49.0235683 12.7320155,49.6295436 13.4798416,49.6295436 C14.2272908,49.6295436 14.8331405,49.0235683 14.8331405,48.2762447 L14.8331405,38.9921196 L15.5059578,38.9921196 L16.1787751,38.9921196 L16.1787751,48.2762447 C16.1787751,49.0235683 16.7846248,49.6295436 17.532074,49.6295436 C18.2795231,49.6295436 18.8853728,49.0235683 18.8853728,48.2762447 L18.8853728,37.0024398 C18.8853728,36.9105949 18.8756983,36.8210116 18.8584853,36.7340667 L18.8584853,30.8175462 L19.3694746,30.0420787 L19.8803384,30.8175462 L19.8803384,36.7340667 C19.8629996,36.8208859 19.8534508,36.9104693 19.8534508,37.0024398 L19.8534508,48.2762447 C19.8534508,49.0235683 20.4593005,49.6295436 21.2067496,49.6295436 C21.9541988,49.6295436 22.5604254,49.0235683 22.5604254,48.2762447 L22.5604254,38.9921196 L23.2332428,38.9921196 L23.9049293,38.9921196 L23.9049293,38.9921196 Z M15.5043245,27.3204038 L13.0882129,27.3204038 L12.2612319,26.0654833 L13.0848206,24.8159654 C13.5730686,25.645208 14.4722943,26.2034391 15.5041988,26.2034391 C15.9205791,26.2034391 16.3139668,26.1103378 16.669536,25.9481329 L17.5741643,27.3202782 L15.5043245,27.3202782 L15.5043245,27.3204038 Z" id="Shape"></path>
                    <path d="M66.7333012,14.134692 C65.9861033,14.134692 65.3800023,14.7406674 65.3800023,15.4879909 L65.3800023,22.836714 L63.2767415,26.0277904 L60.8607556,26.0277904 L59.7881428,26.0277904 C59.8458129,25.8751344 59.8792339,25.7140603 59.8792339,25.5494682 L59.8792339,24.7312821 C60.1852998,24.8454915 60.5148609,24.9112027 60.8603787,24.9112027 C62.4113137,24.9112027 63.6684958,23.6540206 63.6684958,22.1030856 C63.6684958,20.5521505 62.4113137,19.2948428 60.8603787,19.2948428 C60.5148609,19.2948428 60.1847972,19.3603027 59.8792339,19.4747633 L59.8792339,17.7950444 C59.8792339,17.0475953 59.2733842,16.4417456 58.5254324,16.4417456 C57.7782346,16.4417456 57.1722592,17.0475953 57.1722592,17.7950444 L57.1722592,24.0980423 L56.3408807,22.8373422 L56.3408807,15.4878652 C56.3408807,14.7404161 55.735031,14.1345664 54.9877075,14.1345664 C54.2402583,14.1345664 53.633906,14.7405417 53.633906,15.4878652 L53.633906,21.7811886 C53.3278401,21.6669793 52.998279,21.6012681 52.6523843,21.6012681 C52.4811331,21.6012681 52.3142795,21.6189838 52.1510694,21.6485098 L52.1510694,17.7947931 C52.1510694,17.047344 51.5452197,16.4414943 50.7977706,16.4414943 C50.0505727,16.4414943 49.4445974,17.047344 49.4445974,17.7947931 L49.4445974,25.1435162 L48.7888675,26.1381048 L48.6858403,25.9820565 L48.6858403,26.2942789 L48.6858403,30.9005961 L48.6858403,31.2128185 L48.7888675,31.0567701 L49.2997312,31.8322376 L49.2997312,37.7487582 C49.2825181,37.8355774 49.2729693,37.9251607 49.2729693,38.0171313 L49.2729693,49.2909362 C49.2729693,50.0382597 49.878819,50.644235 50.6265194,50.644235 C51.3739686,50.644235 51.9798183,50.0382597 51.9798183,49.2909362 L51.9798183,40.006811 L52.6526356,40.006811 L53.3254529,40.006811 L53.3254529,49.2909362 C53.3254529,50.0382597 53.9313026,50.644235 54.6786261,50.644235 C55.4260753,50.644235 56.0324275,50.0382597 56.0324275,49.2909362 L56.0324275,38.0170056 C56.0324275,37.9251607 56.0228787,37.8355774 56.0054143,37.7486325 L56.0054143,31.832112 L57.5074743,29.5533281 L57.5074743,35.4419559 C57.4902612,35.5287751 57.4807124,35.6183585 57.4807124,35.710329 L57.4807124,46.9840083 C57.4807124,47.7314575 58.0865621,48.3373072 58.8342625,48.3373072 C59.5819629,48.3373072 60.1875614,47.7314575 60.1875614,46.9840083 L60.1875614,37.6998831 L60.8603787,37.6998831 L61.5330704,37.6998831 L61.5330704,46.9840083 C61.5330704,47.7314575 62.1391713,48.3373072 62.8868718,48.3373072 C63.6345722,48.3373072 64.2401706,47.7314575 64.2401706,46.9840083 L64.2401706,35.710329 C64.2401706,35.6184841 64.2306218,35.5289008 64.2131574,35.4419559 L64.2131574,29.5253097 L67.8632071,23.9874766 C68.0089528,23.7663453 68.0867257,23.5076467 68.0867257,23.2427916 L68.0867257,15.4881165 C68.0871026,14.7410443 67.4812529,14.134692 66.7333012,14.134692 L66.7333012,14.134692 Z M55.0693753,28.3349696 L52.6533894,28.3349696 L50.5838008,28.3349696 L51.4885548,26.9628243 C51.8436214,27.1254061 52.2375117,27.2181306 52.653892,27.2181306 C53.6857965,27.2181306 54.5853991,26.6598995 55.0732702,25.8306568 L55.8968589,27.0801747 L55.0693753,28.3349696 L55.0693753,28.3349696 Z" id="Shape"></path>
                    <path d="M48.2785063,33.0823837 C48.2028693,33.2376782 48.1209502,33.3899573 48.0247078,33.535703 L42.710142,41.5990825 L42.710142,49.9885051 C42.7379091,50.1799848 42.7521067,50.3730978 42.7521067,50.5640749 L42.7521067,50.6290323 C42.8009818,50.6344349 42.8489773,50.6441094 42.8993601,50.6441094 C43.6468093,50.6441094 44.252659,50.0381341 44.252659,49.2908105 L44.252659,40.0066854 L44.9254763,40.0066854 L45.5982936,40.0066854 L45.5982936,49.2908105 C45.5982936,50.0381341 46.2041433,50.6441094 46.9518437,50.6441094 C47.6995442,50.6441094 48.3051426,50.0381341 48.3051426,49.2908105 L48.3051426,38.0170056 C48.3051426,37.9251607 48.2955937,37.8355774 48.2781294,37.7486325 L48.2781294,33.0823837 L48.2785063,33.0823837 Z" id="Shape"></path>
                    <path d="M11.204827,11.8571646 C12.0122078,10.7976186 12.0483929,9.3073691 11.3808526,8.14165498 C10.6587833,6.88095489 7.50313815,4.47966924 9.24592976,3.08277232 C10.2132539,2.30730482 8.84374708,0.956267532 7.8864744,1.72331697 C6.75154278,2.63297101 6.64348995,4.02936536 7.03838534,5.35188172 C7.56470313,7.11389668 11.022268,8.94740241 9.54508532,10.8866994 C8.79298738,11.8732468 10.4639113,12.8290118 11.204827,11.8571646 L11.204827,11.8571646 Z" id="Shape"></path>
                    <path d="M61.3165878,3.64175725 C62.5498977,3.51686828 62.1350251,1.63838242 60.9149077,1.76176367 C59.4675023,1.90826321 58.6180312,3.02120734 58.2305487,4.34611092 C57.7142824,6.1111413 59.6195302,9.52988254 57.3255435,10.3540995 C56.158196,10.7734952 57.0408368,12.4839966 58.1908456,12.0707574 C59.4446353,11.6202022 60.2850602,10.3890282 60.3586869,9.04804231 C60.4375906,7.59762155 59.0943432,3.86678354 61.3165878,3.64175725 L61.3165878,3.64175725 Z" id="Shape"></path>
                    <path d="M23.6645746,11.645582 C23.8710057,12.9727472 24.8299118,14.1145892 26.1221482,14.4379938 C27.3078395,14.7347622 28.0160881,12.9451058 26.8130581,12.6436886 C24.4482089,12.0512827 26.0041696,8.46028518 25.31527,6.75518642 C24.7981241,5.47526297 23.8419822,4.45215346 22.387164,4.45026882 C21.1607644,4.4487611 20.934356,6.35916024 22.1741994,6.36066795 C24.406998,6.36418595 23.4415586,10.2104897 23.6645746,11.645582 L23.6645746,11.645582 Z" id="Shape"></path>
                    <path d="M47.1577723,4.75570652 C47.7229137,3.49613721 47.7991789,2.09785823 46.7929056,1.04710729 C45.9448165,0.160948457 44.4095868,1.32088301 45.2669735,2.21633941 C46.8115007,3.82959327 43.3681335,5.79653167 42.4868747,6.95144051 C41.6722066,8.01940451 41.5126403,9.5016129 42.1742754,10.6580295 C42.7811302,11.7187062 44.5627454,10.990606 43.9472212,9.91372137 C42.7369039,7.79789621 46.4051718,6.43391772 47.1577723,4.75570652 L47.1577723,4.75570652 Z" id="Shape"></path>
                    <path d="M29.8041112,6.77026356 C30.3188698,8.01098644 31.521146,8.89299906 32.8529599,8.90091456 C34.0752133,8.90857878 34.3393145,7.00207457 33.0989686,6.99403343 C30.6611209,6.97857936 31.322379,3.12121903 30.2488867,1.62807971 C29.4430137,0.506968794 28.2718969,-0.260457574 26.8582895,0.0825473352 C25.6660647,0.371651473 25.8986296,2.28129675 27.1035443,1.98905154 C29.2747779,1.46311068 29.2473878,5.42852384 29.8041112,6.77026356 L29.8041112,6.77026356 Z" id="Shape"></path>
                    <path d="M16.2240065,12.0277875 C17.9595109,12.0277875 17.9595109,9.33651823 16.2240065,9.33651823 C14.4885022,9.33651823 14.4885022,12.0277875 16.2240065,12.0277875 L16.2240065,12.0277875 Z" id="Shape"></path>
                    <path d="M3.34436068,8.18311711 C5.07973936,8.18311711 5.07973936,5.49184783 3.34436068,5.49184783 C1.60885636,5.49184783 1.60885636,8.18311711 3.34436068,8.18311711 L3.34436068,8.18311711 Z" id="Shape"></path>
                    <path d="M39.4842625,2.03164446 C37.7488838,2.03164446 37.7488838,4.72291374 39.4842625,4.72291374 C41.2196412,4.72291374 41.2196412,2.03164446 39.4842625,2.03164446 L39.4842625,2.03164446 Z" id="Shape"></path>
                    <path d="M36.9851011,11.6433205 C38.7207311,11.6433205 38.7207311,8.95205119 36.9851011,8.95205119 C35.2497224,8.95205119 35.2497224,11.6433205 36.9851011,11.6433205 L36.9851011,11.6433205 Z" id="Shape"></path>
                    <path d="M51.7872078,7.60654219 C53.5225865,7.60654219 53.5225865,4.91527291 51.7872078,4.91527291 C50.0518291,4.91527291 50.0517035,7.60654219 51.7872078,7.60654219 L51.7872078,7.60654219 Z" id="Shape"></path>
                    <path d="M67.1658894,7.79865007 C65.4305108,7.79865007 65.4305108,10.4899194 67.1658894,10.4899194 C68.9012681,10.4899194 68.9013938,7.79865007 67.1658894,7.79865007 L67.1658894,7.79865007 Z" id="Shape"></path>
                </g>
            </g>
            <g id="Group" transform="translate(1.877911, 24.053960)" fill="#FFFFFF" sketch:type="MSShapeGroup">
                <path d="M24.2094296,28.6058426 C24.9303782,27.969917 25.6583149,27.3444738 26.3839223,26.7178658 C26.4887452,31.9962809 26.8521312,37.3923305 26.8719311,37.6171173 L38.4420491,37.688164 C38.2580267,35.6697409 37.8573703,26.4674556 38.0099459,21.809825 C38.1555332,21.678214 38.2987912,21.5349561 38.4304021,21.3637454 C42.2319791,16.4359047 44.9631978,10.846515 46.6916108,4.87277482 C47.7759454,1.12477402 42.0933799,-1.06253035 41.0020571,2.70643502 C39.7197237,7.13578462 37.9016289,11.2553243 35.418491,15.0662189 C34.6439663,14.5688925 33.7413247,14.2486003 32.7594836,14.1682361 C30.1493936,13.9574256 27.8060195,15.5029809 26.8882369,17.8149081 C26.7519671,17.9278838 26.6168621,18.043189 26.4887452,18.1911058 C26.4246867,18.2644818 26.3536401,18.3297049 26.2895817,18.4019163 C26.2814288,15.2735352 21.2708945,14.2008476 20.310018,17.6669913 C19.5855753,20.274752 19.4958935,22.981512 19.1220252,25.6475076 C18.7062277,28.6105014 21.7693856,30.758206 24.2094296,28.6058426 L24.2094296,28.6058426 Z" id="Shape"></path>
                <path d="M21.3687292,11.218054 L21.3687292,11.2704654 C21.3687292,11.9937434 21.9545727,12.5795869 22.6778507,12.5795869 C23.3848228,12.5795869 23.95669,12.0193668 23.9823133,11.3193828 C24.741697,12.8299971 26.1964058,13.9632491 27.9970301,14.2311298 C30.3543806,14.5828688 32.58012,13.3436293 33.593408,11.3240416 C33.6225254,12.0216962 34.1943925,12.5807516 34.8990353,12.5807516 C35.6211486,12.5807516 36.2081568,11.9949081 36.2081568,11.2716301 L36.2081568,11.2192187 C36.6798598,11.2192187 37.0630457,10.8371975 37.0630457,10.3654944 L37.0630457,6.94360931 C37.0630457,6.47307099 36.6798598,6.08988508 36.2081568,6.08988508 L36.2081568,6.03747363 C36.2081568,5.54247663 35.9286291,5.11503217 35.5233139,4.89373939 C34.5927195,2.06235657 31.926724,0.0124866548 28.7890253,0.0124866548 C25.650162,0.0124866548 22.9864958,2.06235657 22.0547368,4.89373939 C21.6482569,5.11503217 21.3710586,5.54247663 21.3710586,6.03747363 L21.3710586,6.08988508 C20.8993556,6.08988508 20.515005,6.47423569 20.515005,6.94360931 L20.515005,10.3654944 C20.5126756,10.8337034 20.8958615,11.218054 21.3687292,11.218054 L21.3687292,11.218054 Z M28.7866959,1.31811403 C31.2174224,1.31811403 33.2987392,2.82872839 34.1524634,4.95779783 C33.8112066,5.19423169 33.5864198,5.58789989 33.5864198,6.03397954 L33.5864198,6.48937677 C32.8247067,4.9834212 31.373492,3.85599275 29.5786911,3.58927672 C27.2236701,3.23753768 25.0014248,4.47328312 23.9858074,6.48937677 L23.9858074,6.03397954 C23.9858074,5.58789989 23.7621853,5.19423169 23.4209285,4.95779783 C24.2746527,2.82872839 26.3559695,1.31811403 28.7866959,1.31811403 L28.7866959,1.31811403 Z" id="Shape"></path>
                <rect id="Rectangle-path" x="0" y="39.6634932" width="68.9513346" height="20.8516029"></rect>
                <rect id="Rectangle-path" x="5.67557733" y="35.638294" width="16.036738" height="2.88262957"></rect>
                <rect id="Rectangle-path" x="45.8460395" y="35.638294" width="16.0379027" height="2.88262957"></rect>
            </g>
        </g>
    </g>
</svg>